<svg xmlns="http://www.w3.org/2000/svg" version="1.1" xmlns:xlink="http://www.w3.org/1999/xlink" width="512"
    height="512" x="0" y="0" viewBox="0 0 512 512" style="enable-background:new 0 0 512 512" xml:space="preserve"
    class="">
    <g>
        <linearGradient id="a" x1="105.866" x2="406.129" y1="419.405" y2="119.142" gradientUnits="userSpaceOnUse">
            <stop offset="0" stop-color="#5ebce5"></stop>
            <stop offset=".513" stop-color="#b678e6"></stop>
            <stop offset="1" stop-color="#e25b61"></stop>
        </linearGradient>
        <path fill="url(#a)"
            d="M484.071 210.219c-7.156 21.2-31.216 81.167-81.938 109.141-29.432 16.231-63.148 19.118-90.528 17.658-.915-1.1-1.856-2.18-2.813-3.245 29.103-8.856 64.442-25.244 89.871-55.454 19.228-22.847 29.704-49.947 35.3-74.863 21.884.722 40.276 4.384 50.108 6.763zm-97.648 57.797c-25.344 30.109-62.746 45.256-91.088 52.789a180.383 180.383 0 0 0-9.418-7.442C304.902 287.633 328 246.733 328 200c0-9.193-.903-18.158-2.483-26.829 36.106-25.962 80.431-34.112 98.209-36.433.931 22.356-.001 86.962-37.303 131.278zM345.571 91.43c3.661 8.9 9.655 25.274 13.721 45.366-12.478 4.956-25.411 11.347-37.753 19.577-4.099-14.093-9.798-27.18-16.073-38.91 16.204-12.85 31.508-21.575 40.105-26.033zM256 75.544c15.108 16.504 56 66.532 56 124.456 0 57.929-40.896 107.958-56 124.456-15.108-16.504-56-66.532-56-124.456 0-57.929 40.896-107.958 56-124.456zM166.429 91.43c8.6 4.46 23.902 13.185 40.104 26.033-6.273 11.727-11.971 24.811-16.07 38.899-12.346-8.232-25.285-14.62-37.766-19.577 4.072-20.088 10.073-36.459 13.732-45.355zm-78.155 45.299c17.773 2.301 62.077 10.401 98.214 36.416C184.905 181.824 184 190.797 184 200c0 46.733 23.097 87.632 42.083 113.36a180.507 180.507 0 0 0-9.444 7.465c-28.317-7.513-65.672-22.646-91.062-52.81-37.309-44.325-38.234-108.949-37.303-131.286zM78.025 203.42c5.593 24.926 16.071 52.04 35.312 74.898 25.424 30.206 60.762 46.598 89.865 55.456a107.673 107.673 0 0 0-2.802 3.241c-27.385 1.459-61.105-1.427-90.533-17.656-50.726-27.977-74.785-87.948-81.938-109.141 9.834-2.378 28.217-6.061 50.096-6.798zM22.461 336c10.113-6.288 27.582-16.108 49.695-24.446 8.852 8.184 18.808 15.651 29.984 21.815 8.673 4.783 17.618 8.529 26.631 11.426-2.292 9.718-3.155 19.81-3.192 29.352C78.691 367.871 39.782 346.771 22.461 336zm123.19 76.405c-2.268-10.893-7.026-39.234-1.461-63.459 15.151 3.337 30.17 4.576 44.099 4.576.417 0 .826-.009 1.241-.011-3.441 7.078-5.53 14.614-5.53 22.489 0 14.899 7.464 28.586 17.46 40.243-22.341 2.819-46.077-1.631-55.809-3.838zM256 438.951c-18.46-10.158-56-36.323-56-62.951 0-18.715 18.538-37.189 35.965-50.047 7.908 9.474 13.74 15.101 14.52 15.843 1.545 1.47 3.529 2.204 5.515 2.204s3.97-.734 5.515-2.204c.78-.743 6.613-6.37 14.521-15.845C293.464 338.809 312 357.285 312 376c0 26.63-37.544 52.796-56 62.951zm110.349-26.547c-9.735 2.209-33.479 6.669-55.821 3.854C320.53 404.598 328 390.906 328 376c0-7.878-2.097-15.415-5.539-22.494.42.002.828.016 1.25.016 13.928 0 28.95-1.24 44.103-4.578 5.562 24.229.802 52.574-1.465 63.46zm20.067-38.212c-.036-9.555-.896-19.662-3.192-29.396 9.015-2.897 17.962-6.643 26.636-11.427 11.175-6.163 21.13-13.629 29.981-21.812 22.113 8.337 39.586 18.155 49.698 24.443-17.326 10.774-56.227 31.915-103.123 38.192z"
            opacity="1" data-original="url(#a)" class=""></path>
    </g>
</svg>