<svg viewBox="-526.439 -176.007 1052.877 452.014" xmlns="http://www.w3.org/2000/svg" style="max-height:100%">
    <defs>
        <linearGradient id="gradient" x1="0%" y1="0%" x2="100%" y2="100%">
            <stop offset="0" stop-color="#5ebce5"></stop>
            <stop offset=".513" stop-color="#b678e6"></stop>
            <stop offset="1" stop-color="#e25b61"></stop>
        </linearGradient>
    </defs>
    <g fill="url(#gradient)">
        <path
            d="M-509.953 100c2.177 0 3.266-1.089 3.266-3.266V70.14l9.797-11.509 23.795 38.103c1.244 2.177 3.68 3.266 7.31 3.266h11.353c1.451 0 2.41-.337 2.877-1.01.466-.675.337-1.634-.389-2.878l-32.97-51.633 29.549-40.902c.829-1.037 1.114-1.892.855-2.566-.26-.674-.96-1.011-2.1-1.011h-15.24c-2.696 0-4.718 1.089-6.066 3.266l-23.64 34.681c-2.384 3.94-3.99 7.154-4.82 9.642h-.311V3.266c0-2.177-1.089-3.266-3.266-3.266h-13.22c-2.177 0-3.266 1.089-3.266 3.266v93.468c0 2.177 1.09 3.266 3.266 3.266zM-314.215 100c1.037 0 1.788-.233 2.255-.7.467-.466.804-1.322 1.01-2.566l4.355-17.107h30.327l4.355 17.107c.207 1.244.518 2.1.933 2.566.415.467 1.192.7 2.333.7h14.93c1.866 0 2.488-1.089 1.866-3.266l-24.572-93.468C-276.942 1.089-278.497 0-281.09 0h-20.684c-2.385 0-3.94 1.089-4.666 3.266l-24.572 93.468c-.622 2.177 0 3.266 1.866 3.266zm22.55-81.182h.623l11.197 44.946h-23.017zM-125.475 74.495c0 8.087 2.28 14.36 6.843 18.818C-114.07 97.77-107.746 100-99.66 100h16.952c8.087 0 14.412-2.23 18.974-6.687 4.562-4.459 6.843-10.731 6.843-18.818v-5.288c0-6.221-1.219-11.327-3.655-15.319-2.437-3.992-5.47-6.765-9.098-8.32-6.843-2.8-14.671-4.562-23.484-5.288-8.502-.726-12.753-3.525-12.753-8.398v-2.955c0-4.666.752-7.802 2.255-9.41 1.504-1.606 4.381-2.41 8.632-2.41h6.065c4.147 0 6.999.726 8.554 2.178 1.555 1.451 2.333 4.199 2.333 8.242v.933c0 2.178 1.088 3.266 3.266 3.266h13.219c2.177 0 3.266-1.088 3.266-3.266v-2.955c0-8.087-2.281-14.36-6.843-18.818C-69.695 2.23-76.071 0-84.263 0h-15.551c-8.087 0-14.412 2.23-18.974 6.687-4.562 4.459-6.843 10.731-6.843 18.818v5.444c0 6.428 1.219 11.69 3.655 15.785 2.437 4.095 5.47 6.843 9.098 8.243 3.629 1.4 7.543 2.54 11.742 3.421 4.199.881 8.113 1.478 11.742 1.789 3.628.31 6.661 1.27 9.098 2.877 2.436 1.607 3.654 3.914 3.654 6.92v1.867c0 4.25-.803 7.154-2.41 8.709-1.607 1.555-4.433 2.333-8.476 2.333h-7.31c-4.147 0-6.998-.726-8.553-2.178-1.555-1.451-2.333-4.147-2.333-8.087v-1.244c0-2.177-1.089-3.266-3.266-3.266h-13.22c-2.177 0-3.265 1.089-3.265 3.266zM127.03 0c-2.177 0-3.266 1.089-3.266 3.266v70.451c0 3.318-.7 5.676-2.1 7.076-1.399 1.4-3.757 2.1-7.075 2.1h-10.731c-3.214 0-5.521-.7-6.92-2.1-1.4-1.4-2.1-3.758-2.1-7.076V3.266c0-2.177-1.09-3.266-3.266-3.266h-13.22c-2.177 0-3.266 1.089-3.266 3.266V74.65c0 8.19 2.23 14.464 6.688 18.818C86.232 97.823 92.557 100 100.747 100h17.108c8.087 0 14.385-2.203 18.895-6.61 4.51-4.406 6.766-10.653 6.766-18.74V3.11c0-2.073-1.14-3.11-3.422-3.11zM344.386 0c-1.659 0-2.644.726-2.955 2.177l-16.64 54.9h-.934l-16.485-54.9C306.854.726 305.87 0 304.417 0h-23.172c-2.178 0-3.266 1.089-3.266 3.266v93.468c0 2.177 1.088 3.266 3.266 3.266h12.752c1.348 0 2.23-.233 2.644-.7.415-.466.622-1.322.622-2.566V22.862h.622l16.175 52.255c.622 2.073 1.918 3.11 3.888 3.11h13.063c1.97 0 3.266-1.037 3.888-3.11l15.863-52.1h.623v73.717c0 2.177 1.088 3.266 3.266 3.266h12.752c2.178 0 3.266-1.089 3.266-3.266V3.266c0-2.177-1.088-3.266-3.266-3.266zM526.439 3.266c0-2.177-1.09-3.266-3.266-3.266h-13.22c-2.177 0-3.266 1.089-3.266 3.266v93.468c0 2.177 1.089 3.266 3.266 3.266h13.22c2.177 0 3.266-1.089 3.266-3.266z" />
    </g>
</svg>